<svg width="512" height="512" viewBox="0 0 512 512" xmlns="http://www.w3.org/2000/svg">
  <!-- 背景圆形 -->
  <circle cx="256" cy="256" r="240" fill="#007AFF" stroke="#ffffff" stroke-width="8"/>
  
  <!-- 麦克风图标 -->
  <g transform="translate(256, 256)">
    <!-- 麦克风主体 -->
    <rect x="-30" y="-80" width="60" height="100" rx="30" fill="#ffffff"/>
    
    <!-- 麦克风底座 -->
    <path d="M -50 40 Q -50 60 -30 60 L 30 60 Q 50 60 50 40" stroke="#ffffff" stroke-width="8" fill="none"/>
    <line x1="0" y1="60" x2="0" y2="90" stroke="#ffffff" stroke-width="8"/>
    <line x1="-25" y1="90" x2="25" y2="90" stroke="#ffffff" stroke-width="8"/>
    
    <!-- 声波线条 -->
    <g stroke="#ffffff" stroke-width="6" fill="none" opacity="0.8">
      <path d="M -80 -20 Q -100 0 -80 20"/>
      <path d="M -100 -30 Q -130 0 -100 30"/>
      <path d="M 80 -20 Q 100 0 80 20"/>
      <path d="M 100 -30 Q 130 0 100 30"/>
    </g>
  </g>
  
  <!-- 中日文字标识 -->
  <g transform="translate(256, 380)" fill="#ffffff" font-family="Arial, sans-serif" font-size="36" text-anchor="middle">
    <text x="-40" y="0">中</text>
    <text x="0" y="0">⇄</text>
    <text x="40" y="0">日</text>
  </g>
</svg> 